<?xml version="1.0" encoding="UTF-8"?>
<!-- Generated by Pixelmator Pro 4.0 -->
<svg width="512" height="512" viewBox="0 0 512 512" xmlns="http://www.w3.org/2000/svg">
    <linearGradient id="linearGradient1" x1="48" y1="48" x2="464" y2="464" gradientUnits="userSpaceOnUse">
        <stop offset="1e-05" stop-color="#818cf8" stop-opacity="1"/>
        <stop offset="1" stop-color="#4f46e5" stop-opacity="1"/>
    </linearGradient>
    <filter id="filter1" x="0" y="0" width="512" height="512" filterUnits="userSpaceOnUse" primitiveUnits="userSpaceOnUse" color-interpolation-filters="sRGB">
        <feGaussianBlur stdDeviation="16"/>
        <feOffset dx="0" dy="12" result="offsetblur"/>
        <feFlood flood-color="#4f46e5" flood-opacity="0.4"/>
        <feComposite in2="offsetblur" operator="in"/>
        <feMerge>
            <feMergeNode/>
            <feMergeNode in="SourceGraphic"/>
        </feMerge>
    </filter>
    <path id="Path" fill="url(#linearGradient1)" stroke="none" filter="url(#filter1)" d="M 144 48 L 368 48 C 421.019348 48 464 90.980652 464 144 L 464 368 C 464 421.019348 421.019348 464 368 464 L 144 464 C 90.980667 464 48 421.019348 48 368 L 48 144 C 48 90.980652 90.980667 48 144 48 Z"/>
    <g id="Group">
        <path id="path1" fill="none" stroke="#ffffff" stroke-width="28" stroke-linecap="round" stroke-linejoin="round" d="M 256 96 L 256 140"/>
        <path id="path2" fill="none" stroke="#ffffff" stroke-width="24" stroke-linecap="round" stroke-linejoin="round" d="M 224 88 L 288 88"/>
        <path id="path3" fill="none" stroke="#ffffff" stroke-width="24" stroke-linecap="round" stroke-linejoin="round" d="M 352 176 L 376 152"/>
        <path id="path4" fill="none" stroke="#ffffff" stroke-width="24" stroke-linecap="round" stroke-linejoin="round" d="M 362 138 L 390 166"/>
        <path id="path5" fill="none" stroke="#ffffff" stroke-width="28" stroke-linecap="round" stroke-linejoin="round" d="M 388 272 C 388 344.901581 328.901581 404 256 404 C 183.098419 404 124 344.901581 124 272 C 124 199.098419 183.098419 140 256 140 C 328.901581 140 388 199.098419 388 272 Z"/>
        <path id="path6" fill="none" stroke="#ffffff" stroke-width="24" stroke-linecap="round" stroke-linejoin="round" d="M 256 184 L 256 272"/>
        <path id="path7" fill="none" stroke="#ffffff" stroke-width="24" stroke-linecap="round" stroke-linejoin="round" d="M 256 272 L 304 304"/>
        <g id="g1" opacity="0.6">
            <path id="path8" fill="none" stroke="#ffffff" stroke-width="12" stroke-linecap="round" stroke-linejoin="round" d="M 256 356 L 256 372"/>
            <path id="path9" fill="none" stroke="#ffffff" stroke-width="12" stroke-linecap="round" stroke-linejoin="round" d="M 172 272 L 188 272"/>
            <path id="path10" fill="none" stroke="#ffffff" stroke-width="12" stroke-linecap="round" stroke-linejoin="round" d="M 340 272 L 324 272"/>
        </g>
    </g>
</svg>
